<svg>
<symbol id="logo" width="132" height="48" viewBox="0 0 132 48" fill="none" xmlns="http://www.w3.org/2000/svg">
      <path
        d="M4.16 12.8V19.2H5.168C5.872 18.08 7.248 17.312 9.104 17.312C13.04 17.312 15.456 20.512 15.456 24.624C15.456 29.104 12.8 31.952 9.136 31.952C7.248 31.952 5.872 31.216 5.2 30.032H4.16V31.68H0V12.8H4.16ZM7.744 28.144C9.904 28.144 11.328 26.6081 11.328 24.6081C11.328 22.64 9.904 21.104 7.744 21.104C5.552 21.104 4.16 22.64 4.16 24.6081C4.16 26.6081 5.552 28.144 7.744 28.144Z"
        fill="black" />
      <path
        d="M33.856 21.3919V17.5839H35.824V14.3199H39.952V17.5839H43.504V21.3919H39.952V25.7439C39.952 27.2479 40.384 27.8719 41.872 27.8719H43.52V31.6799H41.744C37.392 31.6799 35.84 29.8719 35.84 25.7919V21.3919H33.856Z"
        fill="black" />
      <path
        d="M51.04 22.976H54.4V22.928C54.4 21.376 53.408 20.704 51.936 20.704C50.464 20.704 49.712 21.408 49.472 22.368H45.472C45.744 19.44 47.776 17.312 52.016 17.312C56.288 17.312 58.56 19.472 58.56 23.008V31.68H54.4V30.448H53.392C52.736 31.216 51.744 31.952 49.776 31.952C46.816 31.952 45.296 29.984 45.296 27.488C45.296 24.64 47.12 22.976 51.04 22.976ZM51.584 28.528C52.592 28.528 53.52 28.336 54.4 27.792V25.664H51.552C50.208 25.664 49.424 26.16 49.424 27.088C49.424 28.032 50.224 28.528 51.584 28.528Z"
        fill="black" />
      <path
        d="M60.944 31.68V17.584H65.104V18.784H66.112C66.848 17.904 67.696 17.312 69.536 17.312C72.688 17.312 74.384 19.36 74.384 22.896V31.68H70.256V23.792C70.256 22.016 69.488 21.104 67.744 21.104C66.48 21.104 65.696 21.456 65.12 21.904V31.68H60.944Z"
        fill="black" />
      <path
        d="M78.848 12.224C80.192 12.224 81.12 13.12 81.12 14.416C81.12 15.616 80.192 16.544 78.848 16.544C77.504 16.544 76.544 15.616 76.544 14.416C76.544 13.12 77.504 12.224 78.848 12.224ZM80.928 17.584V31.68H76.768V17.584H80.928Z"
        fill="black" />
      <path
        d="M93.264 19.2H94.272V17.584H98.432V35.776H94.272V30.032H93.232C92.544 31.216 91.184 31.952 89.296 31.952C85.632 31.952 82.976 29.104 82.976 24.624C82.976 20.512 85.392 17.312 89.328 17.312C91.184 17.312 92.56 18.08 93.264 19.2ZM90.688 28.144C92.88 28.144 94.272 26.608 94.272 24.608C94.272 22.64 92.88 21.104 90.688 21.104C88.528 21.104 87.104 22.64 87.104 24.608C87.104 26.608 88.528 28.144 90.688 28.144Z"
        fill="black" />
      <path
        d="M100.816 26.368V17.584H104.944V25.472C104.944 27.248 105.712 28.16 107.456 28.16C108.72 28.16 109.504 27.808 110.08 27.36V17.584H114.24V31.68H110.08V30.48H109.072C108.336 31.36 107.488 31.952 105.648 31.952C102.512 31.952 100.816 29.904 100.816 26.368Z"
        fill="black" />
      <path
        d="M116.304 24.608C116.304 20.496 119.312 17.296 123.856 17.296C128.56 17.296 131.36 20.528 131.36 24.464C131.36 24.896 131.328 25.28 131.312 25.552H120.304C120.544 27.44 121.808 28.528 123.856 28.528C125.408 28.528 126.544 27.984 127.008 26.976H131.168C130.352 29.856 127.808 31.936 123.856 31.936C119.312 31.952 116.304 28.72 116.304 24.608ZM127.168 22.912C126.736 21.632 125.632 20.688 123.856 20.688C122.112 20.688 120.896 21.584 120.464 22.912H127.168Z"
        fill="black" />
      <path
        d="M24.016 30.912C23.92 30.128 24.48 29.408 25.28 29.312C26.064 29.216 26.784 29.776 26.88 30.576C26.976 31.36 26.416 32.08 25.616 32.176C25.552 32.176 25.504 32.192 25.44 32.192C24.72 32.176 24.096 31.632 24.016 30.912ZM22.016 31.728C21.264 31.44 20.896 30.608 21.184 29.872C21.472 29.12 22.304 28.752 23.04 29.04C23.776 29.328 24.16 30.16 23.872 30.896C23.648 31.472 23.104 31.824 22.528 31.824C22.352 31.824 22.176 31.792 22.016 31.728ZM27.008 30.512C26.56 29.856 26.72 28.96 27.376 28.512C28.032 28.064 28.928 28.224 29.376 28.88C29.824 29.536 29.664 30.432 29.008 30.88C28.752 31.056 28.464 31.136 28.192 31.136C27.728 31.136 27.28 30.912 27.008 30.512ZM19.024 29.664C18.496 29.072 18.544 28.16 19.136 27.632C19.728 27.104 20.64 27.152 21.168 27.744C21.696 28.336 21.648 29.248 21.056 29.776C20.784 30.016 20.448 30.144 20.096 30.144C19.696 30.16 19.312 29.984 19.024 29.664ZM29.472 28.768C28.768 28.4 28.496 27.52 28.864 26.816C29.232 26.112 30.112 25.84 30.816 26.208C31.52 26.576 31.792 27.456 31.424 28.16C31.168 28.656 30.672 28.928 30.144 28.928C29.904 28.928 29.68 28.88 29.472 28.768ZM17.328 26.464C17.136 25.696 17.616 24.912 18.384 24.72C19.152 24.528 19.936 25.008 20.128 25.776C20.32 26.544 19.84 27.328 19.072 27.52C18.96 27.552 18.848 27.568 18.72 27.568C18.08 27.552 17.488 27.12 17.328 26.464ZM29.392 24.64C29.392 24.624 29.392 24.624 29.392 24.64C29.392 24.624 29.392 24.624 29.392 24.64C29.392 23.824 30.032 23.184 30.832 23.184C31.632 23.184 32.272 23.824 32.272 24.624V24.64C32.272 25.44 31.632 26.08 30.832 26.08C30.048 26.08 29.392 25.424 29.392 24.64ZM18.384 24.576C17.616 24.384 17.136 23.6 17.328 22.832C17.52 22.064 18.304 21.584 19.072 21.776C19.84 21.968 20.32 22.736 20.128 23.52C19.968 24.176 19.376 24.624 18.736 24.624C18.608 24.608 18.496 24.608 18.384 24.576ZM28.848 22.432C28.48 21.728 28.736 20.864 29.44 20.48C30.144 20.112 31.008 20.368 31.392 21.072C31.76 21.776 31.504 22.64 30.8 23.024C30.592 23.136 30.352 23.2 30.128 23.2C29.616 23.2 29.12 22.928 28.848 22.432ZM19.136 21.648C18.544 21.12 18.48 20.208 19.008 19.616C19.536 19.024 20.448 18.96 21.04 19.488C21.632 20.016 21.696 20.928 21.168 21.52C20.88 21.84 20.48 22 20.08 22C19.744 22 19.408 21.888 19.136 21.648ZM27.36 20.752C26.704 20.304 26.544 19.408 26.992 18.752C27.44 18.096 28.336 17.936 28.992 18.384C29.648 18.832 29.808 19.728 29.36 20.384C29.088 20.784 28.624 21.008 28.176 21.008C27.888 21.008 27.6 20.928 27.36 20.752ZM21.152 19.408C20.864 18.672 21.248 17.824 21.984 17.552C22.72 17.264 23.552 17.648 23.84 18.384C24.128 19.12 23.744 19.952 23.008 20.24C22.832 20.304 22.672 20.336 22.496 20.336C21.92 20.336 21.376 19.984 21.152 19.408ZM25.248 19.968C24.464 19.872 23.888 19.152 23.984 18.368C24.08 17.584 24.8 17.008 25.584 17.104C26.368 17.2 26.944 17.92 26.848 18.704C26.768 19.44 26.144 19.968 25.424 19.968C25.36 19.968 25.312 19.968 25.248 19.968Z"
        fill="black" />
      <path
        d="M22.496 28.464C21.808 28.064 21.568 27.184 21.968 26.496C22.368 25.808 23.248 25.568 23.936 25.968C24.624 26.368 24.864 27.248 24.464 27.936C24.192 28.4 23.712 28.656 23.216 28.656C22.96 28.656 22.72 28.592 22.496 28.464ZM24.944 27.936C24.544 27.248 24.784 26.368 25.472 25.968C26.16 25.568 27.04 25.808 27.44 26.496C27.84 27.184 27.6 28.064 26.912 28.464C26.688 28.592 26.432 28.656 26.192 28.656C25.696 28.656 25.2 28.4 24.944 27.936ZM20.272 24.64C20.272 23.84 20.912 23.2 21.712 23.2C22.512 23.2 23.152 23.84 23.152 24.64C23.152 25.44 22.512 26.08 21.712 26.08C20.928 26.08 20.272 25.44 20.272 24.64ZM26.224 24.672C26.224 24.656 26.224 24.64 26.224 24.624C26.224 23.824 26.864 23.184 27.664 23.184C28.464 23.184 29.104 23.824 29.104 24.624V24.64C29.104 25.44 28.464 26.08 27.664 26.08C26.88 26.08 26.256 25.44 26.224 24.672ZM21.952 22.784C21.552 22.096 21.792 21.216 22.48 20.816C23.168 20.416 24.048 20.656 24.448 21.344C24.848 22.032 24.608 22.912 23.92 23.312C23.696 23.44 23.44 23.504 23.2 23.504C22.704 23.504 22.224 23.248 21.952 22.784ZM25.456 23.296C24.768 22.896 24.528 22.016 24.928 21.328C25.328 20.64 26.208 20.4 26.896 20.8C27.584 21.2 27.824 22.08 27.424 22.768C27.152 23.232 26.672 23.488 26.176 23.488C25.936 23.488 25.68 23.424 25.456 23.296Z"
        fill="black" />
    </symbol>
    <symbol id="qr" width="24" height="24" viewBox="0 0 24 24" fill="none" xmlns="http://www.w3.org/2000/svg">
<g clip-path="url(#clip0_2759_42)">
<path d="M9.5 6.5V9.5H6.5V6.5H9.5ZM11 5H5V11H11V5ZM9.5 14.5V17.5H6.5V14.5H9.5ZM11 13H5V19H11V13ZM17.5 6.5V9.5H14.5V6.5H17.5ZM19 5H13V11H19V5ZM13 13H14.5V14.5H13V13ZM14.5 14.5H16V16H14.5V14.5ZM16 13H17.5V14.5H16V13ZM13 16H14.5V17.5H13V16ZM14.5 17.5H16V19H14.5V17.5ZM16 16H17.5V17.5H16V16ZM17.5 14.5H19V16H17.5V14.5ZM17.5 17.5H19V19H17.5V17.5ZM22 7H20V4H17V2H22V7ZM22 22V17H20V20H17V22H22ZM2 22H7V20H4V17H2V22ZM2 2V7H4V4H7V2H2Z" fill="black" fill-opacity="0.6"/>
</g>
<defs>
<clipPath id="clip0_2759_42">
<rect width="24" height="24" fill="white"/>
</clipPath>
</defs>
</symbol>

<symbol id="heart" width="21" height="20" viewBox="0 0 21 20" fill="none" xmlns="http://www.w3.org/2000/svg">
<path fill-rule="evenodd" clip-rule="evenodd" d="M10.5 17.7917L9.29166 16.6917C4.99999 12.8 2.16666 10.2333 2.16666 7.08333C2.16666 4.51667 4.18332 2.5 6.74999 2.5C8.19999 2.5 9.59166 3.175 10.5 4.24167C11.4083 3.175 12.8 2.5 14.25 2.5C16.8167 2.5 18.8333 4.51667 18.8333 7.08333C18.8333 10.2333 16 12.8 11.7083 16.7L10.5 17.7917Z" fill="#818181"/>
</symbol>

<symbol id="bell" width="25" height="24" viewBox="0 0 25 24" fill="none" xmlns="http://www.w3.org/2000/svg">
<g clip-path="url(#clip0_5_2077)">
<path d="M8.08 4.08L6.65 2.65C4.25 4.48 2.67 7.3 2.53 10.5H4.53C4.68 7.85 6.04 5.53 8.08 4.08ZM20.47 10.5H22.47C22.32 7.3 20.74 4.48 18.35 2.65L16.93 4.08C18.95 5.53 20.32 7.85 20.47 10.5ZM18.5 11C18.5 7.93 16.86 5.36 14 4.68V4C14 3.17 13.33 2.5 12.5 2.5C11.67 2.5 11 3.17 11 4V4.68C8.13 5.36 6.5 7.92 6.5 11V16L4.5 18V19H20.5V18L18.5 16V11ZM12.5 22C12.64 22 12.77 21.99 12.9 21.96C13.55 21.82 14.08 21.38 14.34 20.78C14.44 20.54 14.49 20.28 14.49 20H10.49C10.5 21.1 11.39 22 12.5 22Z" fill="black" fill-opacity="0.6"/>
</g>
<defs>
<clipPath id="clip0_5_2077">
<rect width="24" height="24" fill="white" transform="translate(0.5)"/>
</clipPath>
</defs>
</symbol>

<symbol id="bell1" width="25" height="24" viewBox="0 0 25 24" fill="none" xmlns="http://www.w3.org/2000/svg">
<path fill-rule="evenodd" clip-rule="evenodd" d="M12.5 22C13.6 22 14.5 21.1 14.5 20H10.5C10.5 21.1 11.4 22 12.5 22ZM18.5 16V11C18.5 7.93 16.87 5.36 14 4.68V4C14 3.17 13.33 2.5 12.5 2.5C11.67 2.5 11 3.17 11 4V4.68C8.14 5.36 6.5 7.92 6.5 11V16L4.5 18V19H20.5V18L18.5 16ZM16.5 17H8.5V11C8.5 8.52 10.01 6.5 12.5 6.5C14.99 6.5 16.5 8.52 16.5 11V17Z" fill="black" fill-opacity="0.6"/>
</symbol>



<symbol id="bell2" width="25" height="24" viewBox="0 0 25 24" fill="none" xmlns="http://www.w3.org/2000/svg">
<g clip-path="url(#clip0_5_2349)">
<path d="M20.5 18.69L8.34 6.14L5.77 3.49L4.5 4.76L7.3 7.56V7.57C6.78 8.56 6.5 9.73 6.5 10.99V15.99L4.5 17.99V18.99H18.23L20.23 20.99L21.5 19.72L20.5 18.69ZM12.5 22C13.61 22 14.5 21.11 14.5 20H10.5C10.5 21.11 11.39 22 12.5 22ZM18.5 14.68V11C18.5 7.92 16.86 5.36 14 4.68V4C14 3.17 13.33 2.5 12.5 2.5C11.67 2.5 11 3.17 11 4V4.68C10.85 4.71 10.71 4.76 10.58 4.8C10.48 4.83 10.38 4.87 10.28 4.91H10.27C10.26 4.91 10.26 4.91 10.25 4.92C10.02 5.01 9.79 5.12 9.57 5.23C9.57 5.23 9.56 5.23 9.56 5.24L18.5 14.68Z" fill="black" fill-opacity="0.6"/>
</g>
<defs>
<clipPath id="clip0_5_2349">
<rect width="24" height="24" fill="white" transform="translate(0.5)"/>
</clipPath>
</defs>
</symbol>


<symbol id="redheart" width="24" height="24" viewBox="0 0 24 24" fill="none" xmlns="http://www.w3.org/2000/svg">
<path fill-rule="evenodd" clip-rule="evenodd" d="M12 21.35L10.55 20.03C5.4 15.36 2 12.28 2 8.5C2 5.42 4.42 3 7.5 3C9.24 3 10.91 3.81 12 5.09C13.09 3.81 14.76 3 16.5 3C19.58 3 22 5.42 22 8.5C22 12.28 18.6 15.36 13.45 20.04L12 21.35Z" fill="#EE3F44"/>
</symbol>

<symbol id="settings" width="24" height="24" viewBox="0 0 24 24" fill="none" xmlns="http://www.w3.org/2000/svg">
<g opacity="0.6">
<path fill-rule="evenodd" clip-rule="evenodd" d="M19.1231 12.936C19.1591 12.636 19.1831 12.324 19.1831 12C19.1831 11.676 19.1591 11.364 19.1111 11.064L21.1391 9.48002C21.3191 9.33602 21.3671 9.07202 21.2591 8.86802L19.3391 5.54402C19.2191 5.32802 18.9671 5.25602 18.7511 5.32802L16.3631 6.28802C15.8591 5.90402 15.3311 5.59202 14.7431 5.35202L14.3831 2.80802C14.3471 2.56802 14.1431 2.40002 13.9031 2.40002H10.0631C9.82314 2.40002 9.63114 2.56802 9.59514 2.80802L9.23514 5.35202C8.64714 5.59202 8.10714 5.91602 7.61514 6.28802L5.22714 5.32802C5.01114 5.24402 4.75914 5.32802 4.63914 5.54402L2.71914 8.86802C2.59914 9.08402 2.64714 9.33602 2.83914 9.48002L4.86714 11.064C4.81914 11.364 4.78314 11.688 4.78314 12C4.78314 12.312 4.80714 12.636 4.85514 12.936L2.82714 14.52C2.64714 14.664 2.59914 14.928 2.70714 15.132L4.62714 18.456C4.74714 18.672 4.99914 18.744 5.21514 18.672L7.60314 17.712C8.10714 18.096 8.63514 18.408 9.22314 18.648L9.58314 21.192C9.63114 21.432 9.82314 21.6 10.0631 21.6H13.9031C14.1431 21.6 14.3471 21.432 14.3711 21.192L14.7311 18.648C15.3191 18.408 15.8591 18.084 16.3511 17.712L18.7391 18.672C18.9551 18.756 19.2071 18.672 19.3271 18.456L21.2471 15.132C21.3671 14.916 21.3191 14.664 21.1271 14.52L19.1231 12.936ZM11.9831 15.6C10.0031 15.6 8.38314 13.98 8.38314 12C8.38314 10.02 10.0031 8.40002 11.9831 8.40002C13.9631 8.40002 15.5831 10.02 15.5831 12C15.5831 13.98 13.9631 15.6 11.9831 15.6Z" fill="black" fill-opacity="0.87"/>
</g>
</symbol>

<symbol id="unknown" width="40" height="40" viewBox="0 0 40 40" fill="none" xmlns="http://www.w3.org/2000/svg">
<circle cx="20" cy="20" r="20" fill="#F0F0F0"/>
<rect x="11.7857" y="8.21432" width="16.4286" height="22.1429" rx="1.78571" fill="white" stroke="#C2C2C2" stroke-width="0.714286"/>
<rect x="14.2857" y="30" width="2.14286" height="2.14286" rx="0.714286" fill="#C2C2C2"/>
<rect x="23.5714" y="30" width="2.14286" height="2.14286" rx="0.714286" fill="#C2C2C2"/>
<path d="M19.5815 20.6138C19.4885 20.8705 19.4382 21.2202 19.4308 21.663H20.4632C20.4632 21.0975 20.599 20.6641 20.8705 20.3627L21.4788 19.7601C22.0815 19.1276 22.3828 18.4859 22.3828 17.8348C22.3828 17.1763 22.1856 16.6592 21.7913 16.2835C21.4007 15.904 20.8538 15.7143 20.1507 15.7143C19.4736 15.7143 18.923 15.9003 18.4989 16.2723C18.0785 16.6406 17.8646 17.1261 17.8571 17.7288H18.8895C18.8895 17.3903 19.0048 17.1205 19.2355 16.9197C19.4662 16.7188 19.7712 16.6183 20.1507 16.6183C20.5413 16.6183 20.8389 16.7299 21.0435 16.9531C21.2481 17.1726 21.3505 17.4777 21.3505 17.8683C21.3505 18.2738 21.1942 18.6533 20.8817 19.0067L20.1507 19.7601C19.8642 20.0726 19.6745 20.3572 19.5815 20.6138Z" fill="#C2C2C2"/>
<path d="M20.4643 23.0402C20.4643 23.3262 20.2324 23.558 19.9464 23.558C19.6604 23.558 19.4286 23.3262 19.4286 23.0402C19.4286 22.7542 19.6604 22.5223 19.9464 22.5223C20.2324 22.5223 20.4643 22.7542 20.4643 23.0402Z" fill="#C4C4C4"/>
</symbol>

<symbol id="clock" width="24" height="24" viewBox="0 0 24 24" fill="none" xmlns="http://www.w3.org/2000/svg">
<g clip-path="url(#clip0_3036_87)">
<path d="M22 5.71998L17.4 1.85999L16.11 3.38999L20.71 7.24998L22 5.71998ZM7.88 3.38999L6.6 1.85999L2 5.70998L3.29 7.23998L7.88 3.38999ZM12 3.99998C7.03 3.99998 3 8.02998 3 13C3 17.97 7.02 22 12 22C16.97 22 21 17.97 21 13C21 8.02998 16.97 3.99998 12 3.99998ZM12 20C8.13 20 5 16.87 5 13C5 9.12998 8.13 5.99998 12 5.99998C15.87 5.99998 19 9.12998 19 13C19 16.87 15.87 20 12 20ZM10.54 14.53L8.41 12.4L7.35 13.46L10.53 16.64L16.53 10.64L15.47 9.57998L10.54 14.53Z" fill="black" fill-opacity="0.87"/>
</g>
<defs>
<clipPath id="clip0_3036_87">
<rect width="24" height="24" fill="white"/>
</clipPath>
</defs>
</symbol>

<symbol id="rightarrow" width="16" height="16" viewBox="0 0 16 16" fill="none" xmlns="http://www.w3.org/2000/svg">
<g clip-path="url(#clip0_4_1953)">
<path d="M8 2.66669L7.06 3.60669L10.78 7.33335H2.66667V8.66669H10.78L7.06 12.3934L8 13.3334L13.3333 8.00002L8 2.66669Z" fill="black" fill-opacity="0.6"/>
</g>
<defs>
<clipPath id="clip0_4_1953">
<rect width="16" height="16" fill="white"/>
</clipPath>
</defs>
</symbol>

<symbol id="jackdaw" xmlns="http://www.w3.org/2000/svg" width="20" height="20" viewBox="0 0 20 20" fill="none">
  <path fill-rule="evenodd" clip-rule="evenodd" d="M7.50001 13.5L4.00001 10L2.83334 11.1667L7.50001 15.8334L17.5 5.83335L16.3333 4.66669L7.50001 13.5Z" fill="#23B04A"/>
</symbol>

</svg>